<?xml version="1.0" standalone="no"?>
<!DOCTYPE svg PUBLIC "-//W3C//DTD SVG 20010904//EN"
 "http://www.w3.org/TR/2001/REC-SVG-20010904/DTD/svg10.dtd">
<svg version="1.0" xmlns="http://www.w3.org/2000/svg"
 width="512.000000pt" height="512.000000pt" viewBox="0 0 512.000000 512.000000"
 preserveAspectRatio="xMidYMid meet">
<metadata>
Created by potrace 1.14, written by Peter Selinger 2001-2017
</metadata>
<g transform="translate(0.000000,512.000000) scale(0.100000,-0.100000)"
fill="#000000" stroke="none">
<path d="M315 5105 c-128 -28 -218 -93 -264 -189 -54 -115 -51 -9 -49 -2388
l3 -2203 23 -64 c45 -125 108 -188 233 -233 l64 -23 2235 0 2235 0 64 23 c125
45 188 108 233 233 l23 64 0 2235 0 2235 -23 64 c-45 125 -108 188 -233 233
l-64 23 -2210 2 c-1799 1 -2221 -1 -2270 -12z m1652 -1600 c39 -104 189 -503
331 -885 143 -382 265 -706 270 -720 19 -45 172 -458 172 -464 0 -3 -110 -6
-245 -6 -227 0 -245 1 -254 18 -6 10 -40 108 -76 218 -37 109 -71 207 -76 216
-9 17 -35 18 -417 16 l-407 -3 -77 -230 c-43 -126 -77 -231 -78 -232 0 -2
-110 -3 -245 -3 -206 0 -245 2 -245 14 0 12 159 448 224 616 22 54 66 175 161
430 48 129 95 258 106 285 50 134 105 280 179 480 109 295 139 374 156 413
l14 32 217 -2 218 -3 72 -190z m1120 88 c28 -60 62 -133 76 -163 14 -30 39
-86 57 -125 18 -38 65 -142 105 -230 40 -88 93 -204 119 -258 25 -55 46 -103
46 -108 0 -5 6 -9 13 -9 8 0 110 211 243 498 l229 497 258 3 c141 1 257 0 257
-3 0 -3 -17 -38 -38 -77 -63 -118 -173 -330 -272 -523 -51 -99 -134 -261 -185
-360 -51 -99 -129 -251 -174 -338 l-81 -158 0 -405 0 -404 -235 0 -235 0 0
410 0 411 -336 652 c-185 359 -351 680 -370 715 -19 34 -34 67 -34 72 0 6 97
10 253 10 l254 0 50 -107z"/>
<path d="M1670 3110 c0 -3 -61 -187 -135 -408 -74 -221 -135 -406 -135 -412 0
-6 98 -10 275 -10 218 0 275 3 275 13 0 13 -14 57 -178 545 -71 212 -101 291
-102 272z"/>
</g>
</svg>
